{
  "asset": {
    "generator": "Bedroom App GLTF Exporter",
    "version": "2.0"
  },
  "scene": 0,
  "scenes": [
    {
      "nodes": [0]
    }
  ],
  "nodes": [
    {
      "name": "Cabinet",
      "children": [1, 2],
      "matrix": [
        1.0, 0.0, 0.0, 0.0,
        0.0, 1.0, 0.0, 0.0,
        0.0, 0.0, 1.0, 0.0,
        0.0, 0.0, 0.0, 1.0
      ]
    },
    {
      "name": "CabinetBody",
      "mesh": 0,
      "translation": [0, 0.5, 0]
    },
    {
      "name": "CabinetDoors",
      "mesh": 1,
      "translation": [0, 0.5, 0.3]
    }
  ],
  "meshes": [
    {
      "name": "CabinetBody",
      "primitives": [
        {
          "attributes": {
            "POSITION": 0,
            "NORMAL": 1
          },
          "indices": 2,
          "material": 0,
          "mode": 4
        }
      ]
    },
    {
      "name": "CabinetDoors",
      "primitives": [
        {
          "attributes": {
            "POSITION": 3,
            "NORMAL": 4
          },
          "indices": 5,
          "material": 1,
          "mode": 4
        }
      ]
    }
  ],
  "accessors": [
    {
      "bufferView": 0,
      "componentType": 5126,
      "count": 24,
      "max": [0.6, 1.4, 0.4],
      "min": [-0.6, 0.0, -0.4],
      "type": "VEC3"
    },
    {
      "bufferView": 1,
      "componentType": 5126,
      "count": 24,
      "type": "VEC3"
    },
    {
      "bufferView": 2,
      "componentType": 5123,
      "count": 36,
      "type": "SCALAR"
    },
    {
      "bufferView": 3,
      "componentType": 5126,
      "count": 24,
      "max": [-0.01, 1.35, 0.39],
      "min": [-0.59, 0.05, 0.01],
      "type": "VEC3"
    },
    {
      "bufferView": 4,
      "componentType": 5126,
      "count": 24,
      "type": "VEC3"
    },
    {
      "bufferView": 5,
      "componentType": 5123,
      "count": 36,
      "type": "SCALAR"
    },
    {
      "bufferView": 6,
      "componentType": 5126,
      "count": 24,
      "max": [0.59, 1.35, 0.39],
      "min": [0.01, 0.05, 0.01],
      "type": "VEC3"
    },
    {
      "bufferView": 7,
      "componentType": 5126,
      "count": 24,
      "type": "VEC3"
    },
    {
      "bufferView": 8,
      "componentType": 5123,
      "count": 36,
      "type": "SCALAR"
    }
  ],
  "materials": [
    {
      "pbrMetallicRoughness": {
        "baseColorFactor": [0.55, 0.43, 0.38, 1.0],
        "metallicFactor": 0.0,
        "roughnessFactor": 0.6
      },
      "name": "WoodMaterial"
    }
  ],
  "bufferViews": [
    {
      "buffer": 0,
      "byteLength": 288,
      "byteOffset": 0
    },
    {
      "buffer": 0,
      "byteLength": 288,
      "byteOffset": 288
    },
    {
      "buffer": 0,
      "byteLength": 72,
      "byteOffset": 576
    },
    {
      "buffer": 0,
      "byteLength": 288,
      "byteOffset": 648
    },
    {
      "buffer": 0,
      "byteLength": 288,
      "byteOffset": 936
    },
    {
      "buffer": 0,
      "byteLength": 72,
      "byteOffset": 1224
    },
    {
      "buffer": 0,
      "byteLength": 288,
      "byteOffset": 1296
    },
    {
      "buffer": 0,
      "byteLength": 288,
      "byteOffset": 1584
    },
    {
      "buffer": 0,
      "byteLength": 72,
      "byteOffset": 1872
    }
  ],
  "buffers": [
    {
      "uri": "data:application/octet-stream;base64,",
      "byteLength": 1944
    }
  ]
} 